<svg xmlns="http://www.w3.org/2000/svg" fill="none" viewBox="0 0 97 164" height="164" width="97">
<g clip-path="url(#clip0_1_2)" id="Frame">
<g id="Logo">
<g id="Group">
<path fill="white" d="M28.23 46.9999H48.21C53.07 46.9999 59.48 46.9999 62.79 49.0099C66.42 51.1699 69.27 55.0999 69.27 60.5099C69.27 66.3699 66.19 70.7699 61.09 72.8499V73.0099C67.88 74.3999 71.58 79.4899 71.58 86.2799C71.58 94.3799 65.79 102.1 54.84 102.1H28.23V46.9999ZM35.56 70.6799H50.23C58.56 70.6799 61.96 67.6699 61.96 61.8799C61.96 54.2399 56.56 53.1599 50.23 53.1599H35.56V70.6799ZM35.56 95.9099H53.93C60.25 95.9099 64.27 92.0499 64.27 86.0399C64.27 78.8599 58.48 76.8599 52.31 76.8599H35.56V95.9099Z" id="Vector"></path>
<path fill="white" d="M90.33 74.5599C90.33 97.6999 71.57 116.46 48.42 116.46C25.28 116.46 6.52002 97.6999 6.52002 74.5599C6.52002 51.4199 25.28 32.6599 48.42 32.6599C71.57 32.6699 90.33 51.4299 90.33 74.5599ZM48.43 26.2799C21.78 26.2799 0.170017 47.8899 0.170017 74.5399C0.170017 101.19 21.78 122.8 48.43 122.8C75.09 122.8 96.7 101.19 96.7 74.5399C96.7 47.8899 75.09 26.2799 48.43 26.2799Z" id="Vector_2"></path>
</g>
<g id="Group_2">
<path fill="white" d="M96.59 132.99H0.260017V139.32H96.59V132.99Z" id="Vector_3"></path>
<path fill="white" d="M93.58 126.02C93.7 126.02 93.81 126.01 93.92 126.01C94.02 126 94.12 125.98 94.2 125.95C94.29 125.91 94.35 125.85 94.4 125.78C94.45 125.7 94.47 125.6 94.47 125.47C94.47 125.36 94.45 125.26 94.41 125.2C94.37 125.13 94.31 125.08 94.24 125.05C94.17 125.01 94.1 124.99 94 124.97C93.91 124.96 93.83 124.96 93.73 124.96H93.04V126.03H93.58V126.02ZM93.81 124.52C94.21 124.52 94.5 124.6 94.7 124.76C94.89 124.92 94.99 125.16 94.99 125.49C94.99 125.8 94.9 126.01 94.74 126.16C94.57 126.3 94.36 126.38 94.1 126.41L95.06 127.89H94.5L93.58 126.44H93.03V127.89H92.5V124.53H93.81V124.52ZM91.45 127.17C91.56 127.47 91.73 127.74 91.95 127.96C92.16 128.18 92.41 128.35 92.7 128.48C92.98 128.6 93.3 128.66 93.63 128.66C93.97 128.66 94.28 128.6 94.56 128.48C94.85 128.35 95.1 128.18 95.31 127.96C95.52 127.74 95.69 127.48 95.8 127.17C95.92 126.87 95.99 126.55 95.99 126.2C95.99 125.85 95.93 125.53 95.8 125.23C95.68 124.93 95.51 124.67 95.31 124.45C95.09 124.23 94.84 124.06 94.56 123.94C94.28 123.82 93.96 123.75 93.63 123.75C93.3 123.75 92.98 123.82 92.7 123.94C92.41 124.07 92.15 124.24 91.95 124.45C91.73 124.67 91.57 124.93 91.45 125.23C91.33 125.53 91.27 125.84 91.27 126.2C91.26 126.54 91.32 126.87 91.45 127.17ZM90.97 125.06C91.12 124.71 91.33 124.42 91.59 124.16C91.85 123.9 92.16 123.71 92.51 123.56C92.86 123.41 93.24 123.34 93.62 123.34C94.02 123.34 94.39 123.41 94.75 123.56C95.09 123.71 95.4 123.9 95.65 124.16C95.91 124.42 96.13 124.72 96.27 125.06C96.43 125.41 96.5 125.79 96.5 126.2C96.5 126.61 96.43 126.99 96.27 127.34C96.12 127.7 95.91 128 95.65 128.26C95.39 128.53 95.09 128.72 94.75 128.87C94.39 129.01 94.02 129.08 93.62 129.08C93.23 129.08 92.86 129.01 92.51 128.87C92.16 128.72 91.85 128.53 91.59 128.26C91.33 128 91.12 127.7 90.97 127.34C90.81 126.99 90.75 126.61 90.75 126.2C90.74 125.79 90.81 125.41 90.97 125.06Z" id="Vector_4"></path>
</g>
<g id="Group_3">
<path fill="white" d="M11.94 5.05994C11.71 4.68994 11.43 4.36994 11.09 4.09994C10.75 3.81994 10.36 3.60994 9.93002 3.44994C9.50002 3.29994 9.05002 3.21994 8.58002 3.21994C7.72002 3.21994 6.99002 3.38994 6.38002 3.71994C5.78002 4.04994 5.29002 4.49994 4.92002 5.05994C4.55002 5.61994 4.27002 6.25994 4.10002 6.97994C3.93002 7.69994 3.84002 8.43994 3.84002 9.19994C3.84002 9.92994 3.92002 10.6399 4.10002 11.3299C4.27002 12.0199 4.54002 12.6399 4.92002 13.1999C5.29002 13.7499 5.78002 14.1999 6.38002 14.5299C6.98002 14.8599 7.71002 15.0299 8.58002 15.0299C9.75002 15.0299 10.67 14.6699 11.32 13.9599C11.98 13.2399 12.38 12.2999 12.53 11.1299H16.24C16.14 12.2199 15.89 13.1999 15.48 14.0799C15.07 14.9599 14.54 15.7099 13.87 16.3199C13.2 16.9399 12.42 17.4099 11.53 17.7399C10.64 18.0599 9.65002 18.2299 8.58002 18.2299C7.25002 18.2299 6.05002 17.9999 4.98002 17.5299C3.91002 17.0699 3.02002 16.4299 2.28002 15.6099C1.55002 14.7999 0.990018 13.8399 0.600018 12.7399C0.210018 11.6399 0.0100174 10.4599 0.0100174 9.18994C0.0100174 7.88994 0.200018 6.67994 0.600018 5.56994C0.990018 4.45994 1.55002 3.47994 2.28002 2.65994C3.01002 1.82994 3.91002 1.17994 4.98002 0.709942C6.04002 0.239942 7.24002 -5.72205e-05 8.58002 -5.72205e-05C9.54002 -5.72205e-05 10.45 0.139943 11.3 0.409943C12.15 0.689943 12.92 1.08994 13.59 1.61994C14.26 2.14994 14.82 2.79994 15.26 3.57994C15.7 4.35994 15.98 5.25994 16.09 6.25994H12.38C12.31 5.81994 12.17 5.41994 11.94 5.05994Z" id="Vector_5"></path>
<path fill="white" d="M21.23 14.7999C21.75 15.2999 22.5 15.5599 23.47 15.5599C24.17 15.5599 24.77 15.3899 25.28 15.0399C25.78 14.6899 26.09 14.3199 26.21 13.9299H29.26C28.77 15.4399 28.02 16.5299 27.01 17.1799C26 17.8299 24.78 18.1599 23.35 18.1599C22.36 18.1599 21.46 17.9999 20.67 17.6799C19.87 17.3599 19.2 16.9099 18.64 16.3299C18.09 15.7499 17.66 15.0499 17.36 14.2299C17.06 13.4199 16.91 12.5199 16.91 11.5499C16.91 10.6099 17.06 9.72994 17.37 8.91994C17.68 8.10994 18.12 7.39994 18.69 6.80994C19.26 6.21994 19.94 5.74994 20.73 5.40994C21.52 5.06994 22.39 4.89994 23.35 4.89994C24.42 4.89994 25.36 5.10994 26.16 5.51994C26.96 5.93994 27.61 6.48994 28.12 7.18994C28.63 7.88994 29 8.68994 29.23 9.57994C29.46 10.4699 29.54 11.4099 29.47 12.3899H20.37C20.42 13.4799 20.7 14.2999 21.23 14.7999ZM25.14 8.16994C24.72 7.71994 24.09 7.48994 23.25 7.48994C22.7 7.48994 22.24 7.57994 21.87 7.76994C21.5 7.95994 21.21 8.18994 20.99 8.45994C20.77 8.73994 20.62 9.02994 20.53 9.33994C20.44 9.64994 20.39 9.91994 20.37 10.1699H26.01C25.85 9.28994 25.56 8.61994 25.14 8.16994Z" id="Vector_6"></path>
<path fill="white" d="M34.33 5.20994V7.54994H34.38C34.54 7.15994 34.76 6.79994 35.04 6.45994C35.32 6.12994 35.63 5.83994 35.99 5.60994C36.35 5.37994 36.73 5.18994 37.14 5.05994C37.55 4.92994 37.97 4.86994 38.41 4.86994C38.64 4.86994 38.89 4.90994 39.17 4.98994V8.20994C39.01 8.17994 38.81 8.14994 38.58 8.12994C38.35 8.10994 38.13 8.08994 37.92 8.08994C37.29 8.08994 36.75 8.19994 36.31 8.40994C35.87 8.61994 35.52 8.90994 35.25 9.27994C34.98 9.64994 34.79 10.0699 34.68 10.5599C34.57 11.0499 34.51 11.5799 34.51 12.1499V17.8399H31.05V5.20994H34.33Z" id="Vector_7"></path>
<path fill="white" d="M48.43 5.20994V7.52994H45.89V13.7799C45.89 14.3699 45.99 14.7599 46.18 14.9499C46.37 15.1399 46.77 15.2399 47.35 15.2399C47.55 15.2399 47.73 15.2299 47.91 15.2199C48.09 15.1999 48.26 15.1799 48.42 15.1499V17.8299C48.13 17.8799 47.8 17.9099 47.44 17.9299C47.08 17.9499 46.73 17.9599 46.39 17.9599C45.85 17.9599 45.34 17.9199 44.87 17.8499C44.39 17.7799 43.97 17.6399 43.6 17.4199C43.23 17.2099 42.95 16.9099 42.73 16.5199C42.52 16.1299 42.41 15.6199 42.41 14.9799V7.53994H40.31V5.21994H42.41V1.43994H45.87V5.21994H48.43V5.20994Z" id="Vector_8"></path>
<path fill="white" d="M50.45 3.25994V0.399942H53.91V3.25994H50.45ZM53.91 5.20994V17.8199H50.45V5.20994H53.91Z" id="Vector_9"></path>
<path fill="white" d="M55.29 7.52994V5.20994H57.36V4.22994C57.36 3.10994 57.71 2.18994 58.41 1.46994C59.11 0.749942 60.17 0.399942 61.58 0.399942C61.89 0.399942 62.2 0.409943 62.51 0.439943C62.82 0.459943 63.12 0.489943 63.41 0.499943V3.08994C63 3.03994 62.58 3.01994 62.14 3.01994C61.67 3.01994 61.33 3.12994 61.13 3.34994C60.93 3.56994 60.83 3.93994 60.83 4.45994V5.21994H63.22V7.53994H60.83V17.8399H57.36V7.53994H55.29V7.52994Z" id="Vector_10"></path>
<path fill="white" d="M65.56 3.25994V0.399942H69.02V3.25994H65.56ZM69.03 5.20994V17.8199H65.56V5.20994H69.03Z" id="Vector_11"></path>
<path fill="white" d="M74.49 14.7999C75.01 15.2999 75.76 15.5599 76.73 15.5599C77.43 15.5599 78.03 15.3899 78.54 15.0399C79.04 14.6899 79.35 14.3199 79.47 13.9299H82.52C82.03 15.4399 81.28 16.5299 80.28 17.1799C79.27 17.8299 78.05 18.1599 76.62 18.1599C75.63 18.1599 74.73 17.9999 73.94 17.6799C73.14 17.3599 72.47 16.9099 71.91 16.3299C71.36 15.7499 70.93 15.0499 70.63 14.2299C70.33 13.4199 70.18 12.5199 70.18 11.5499C70.18 10.6099 70.34 9.72994 70.64 8.91994C70.95 8.07994 71.39 7.37994 71.96 6.78994C72.53 6.19994 73.21 5.72994 74 5.38994C74.79 5.04994 75.66 4.87994 76.62 4.87994C77.69 4.87994 78.63 5.08994 79.43 5.49994C80.23 5.91994 80.88 6.46994 81.39 7.16994C81.9 7.86994 82.27 8.66994 82.5 9.55994C82.73 10.4499 82.81 11.3899 82.75 12.3699H73.65C73.69 13.4799 73.97 14.2999 74.49 14.7999ZM78.41 8.16994C78 7.71994 77.36 7.48994 76.52 7.48994C75.97 7.48994 75.51 7.57994 75.14 7.76994C74.77 7.95994 74.48 8.18994 74.26 8.45994C74.04 8.73994 73.89 9.02994 73.8 9.33994C73.71 9.64994 73.66 9.91994 73.64 10.1699H79.27C79.11 9.28994 78.82 8.61994 78.41 8.16994Z" id="Vector_12"></path>
<path fill="white" d="M93.26 16.2199C92.85 16.8999 92.32 17.3999 91.66 17.6999C91 17.9999 90.26 18.1499 89.43 18.1499C88.49 18.1499 87.66 17.9699 86.94 17.5999C86.22 17.2299 85.63 16.7399 85.17 16.1099C84.71 15.4799 84.36 14.7599 84.12 13.9499C83.88 13.1399 83.77 12.2899 83.77 11.4099C83.77 10.5599 83.89 9.74994 84.12 8.95994C84.35 8.16994 84.71 7.47994 85.17 6.86994C85.63 6.26994 86.22 5.77994 86.91 5.41994C87.61 5.04994 88.42 4.86994 89.35 4.86994C90.1 4.86994 90.81 5.02994 91.48 5.34994C92.16 5.66994 92.69 6.12994 93.08 6.74994H93.13V0.409943H96.59V17.8299H93.3V16.2199H93.26ZM93.11 9.97994C93.01 9.49994 92.85 9.07994 92.61 8.70994C92.37 8.33994 92.07 8.04994 91.69 7.81994C91.32 7.58994 90.84 7.47994 90.28 7.47994C89.72 7.47994 89.23 7.58994 88.84 7.81994C88.45 8.04994 88.14 8.34994 87.9 8.71994C87.67 9.08994 87.5 9.51994 87.39 9.99994C87.28 10.4799 87.23 10.9799 87.23 11.4999C87.23 11.9899 87.29 12.4799 87.4 12.9599C87.51 13.4499 87.7 13.8799 87.95 14.2699C88.2 14.6499 88.52 14.9599 88.9 15.1999C89.28 15.4399 89.74 15.5499 90.28 15.5499C90.85 15.5499 91.32 15.4399 91.71 15.2099C92.09 14.9799 92.4 14.6799 92.63 14.2899C92.86 13.9099 93.02 13.4699 93.12 12.9899C93.22 12.4999 93.27 11.9999 93.27 11.4799C93.26 10.9599 93.21 10.4599 93.11 9.97994Z" id="Vector_13"></path>
</g>
<g id="Group_4">
<path fill="white" d="M8.71002 151.75C8.54002 150.53 7.37002 149.6 6.03002 149.6C3.61002 149.6 2.70002 151.66 2.70002 153.81C2.70002 155.85 3.61002 157.91 6.03002 157.91C7.68002 157.91 8.61002 156.78 8.81002 155.16H11.43C11.15 158.22 9.04002 160.18 6.03002 160.18C2.23002 160.18 1.90735e-05 157.34 1.90735e-05 153.81C1.90735e-05 150.17 2.23002 147.33 6.03002 147.33C8.73002 147.33 10.99 148.91 11.32 151.75H8.71002Z" id="Vector_14"></path>
<path fill="white" d="M17.06 150.77C19.86 150.77 21.66 152.62 21.66 155.46C21.66 158.28 19.86 160.13 17.06 160.13C14.28 160.13 12.47 158.27 12.47 155.46C12.47 152.63 14.28 150.77 17.06 150.77ZM17.06 158.3C18.73 158.3 19.22 156.87 19.22 155.47C19.22 154.04 18.72 152.62 17.06 152.62C15.41 152.62 14.91 154.05 14.91 155.47C14.91 156.87 15.41 158.3 17.06 158.3Z" id="Vector_15"></path>
<path fill="white" d="M23.17 151H25.49V152.65H25.53C25.97 151.53 27.18 150.76 28.37 150.76C28.54 150.76 28.75 150.79 28.9 150.84V153.11C28.67 153.06 28.31 153.03 28.02 153.03C26.23 153.03 25.61 154.32 25.61 155.88V159.88H23.17V151Z" id="Vector_16"></path>
<path fill="white" d="M29.85 151.01H32.17V152.14H32.2C32.78 151.2 33.74 150.77 34.84 150.77C37.63 150.77 38.88 153.02 38.88 155.54C38.88 157.91 37.58 160.13 34.98 160.13C33.92 160.13 32.9 159.67 32.32 158.79H32.28V163.02H29.84V151.01H29.85ZM36.44 155.48C36.44 154.07 35.87 152.61 34.31 152.61C32.71 152.61 32.2 154.04 32.2 155.48C32.2 156.92 32.75 158.3 34.33 158.3C35.93 158.3 36.44 156.92 36.44 155.48Z" id="Vector_17"></path>
<path fill="white" d="M44.23 150.77C47.03 150.77 48.84 152.62 48.84 155.46C48.84 158.28 47.03 160.13 44.23 160.13C41.45 160.13 39.65 158.27 39.65 155.46C39.65 152.63 41.45 150.77 44.23 150.77ZM44.23 158.3C45.9 158.3 46.4 156.87 46.4 155.47C46.4 154.04 45.9 152.62 44.23 152.62C42.58 152.62 42.08 154.05 42.08 155.47C42.09 156.87 42.59 158.3 44.23 158.3Z" id="Vector_18"></path>
<path fill="white" d="M50.35 151H52.67V152.65H52.71C53.15 151.53 54.36 150.76 55.54 150.76C55.71 150.76 55.92 150.79 56.07 150.84V153.11C55.85 153.06 55.49 153.03 55.19 153.03C53.4 153.03 52.78 154.32 52.78 155.88V159.88H50.34V151H50.35Z" id="Vector_19"></path>
<path fill="white" d="M56.79 153.74C56.93 151.45 58.97 150.77 60.97 150.77C62.74 150.77 64.87 151.16 64.87 153.29V157.91C64.87 158.72 64.95 159.52 65.18 159.89H62.7C62.62 159.61 62.54 159.32 62.53 159.03C61.76 159.84 60.63 160.13 59.54 160.13C57.86 160.13 56.52 159.29 56.52 157.47C56.52 155.46 58.03 154.98 59.54 154.77C61.04 154.55 62.43 154.6 62.43 153.6C62.43 152.55 61.7 152.4 60.85 152.4C59.92 152.4 59.32 152.78 59.23 153.74H56.79ZM62.42 155.55C62 155.91 61.15 155.93 60.39 156.07C59.63 156.22 58.95 156.48 58.95 157.38C58.95 158.29 59.65 158.51 60.45 158.51C62.35 158.51 62.43 157 62.43 156.47V155.55H62.42Z" id="Vector_20"></path>
<path fill="white" d="M69.79 151.01H71.58V152.64H69.79V157.04C69.79 157.87 70 158.07 70.82 158.07C71.08 158.07 71.32 158.05 71.58 158V159.91C71.17 159.98 70.63 160 70.15 160C68.66 160 67.35 159.65 67.35 157.89V152.65H65.87V151.02H67.35V148.36H69.79V151.01Z" id="Vector_21"></path>
<path fill="white" d="M75.86 149.64H73.42V147.63H75.86V149.64ZM73.42 151.01H75.86V159.89H73.42V151.01Z" id="Vector_22"></path>
<path fill="white" d="M82.08 150.77C84.88 150.77 86.69 152.62 86.69 155.46C86.69 158.28 84.88 160.13 82.08 160.13C79.3 160.13 77.5 158.27 77.5 155.46C77.5 152.63 79.3 150.77 82.08 150.77ZM82.08 158.3C83.75 158.3 84.25 156.87 84.25 155.47C84.25 154.04 83.75 152.62 82.08 152.62C80.43 152.62 79.93 154.05 79.93 155.47C79.93 156.87 80.43 158.3 82.08 158.3Z" id="Vector_23"></path>
<path fill="white" d="M88.26 151.01H90.58V152.25H90.63C91.25 151.25 92.31 150.77 93.35 150.77C95.94 150.77 96.6 152.23 96.6 154.43V159.89H94.16V154.87C94.16 153.41 93.73 152.69 92.6 152.69C91.27 152.69 90.71 153.43 90.71 155.24V159.9H88.27V151.01H88.26Z" id="Vector_24"></path>
</g>
</g>
</g>
<defs>
<clipPath id="clip0_1_2">
<rect fill="white" height="163.02" width="96.7"></rect>
</clipPath>
</defs>
</svg>
